# xmcd
#
# Track frame offsets: 
#        182
#        13705
#        27837
#        40592
#        53557
#        65832
#        80335
#        100250
#        125140
#        136615
#        148677
#        158690
#
# Disc length: 2285 seconds
#
# Revision: 2
# Processed by: cddbd v1.5.2PL0 Copyright (c) Steve Scherf et al.
# Submitted via: ExactAudioCopyFreeDBPlugin 1.0
#
DISCID=9808eb0c
DTITLE=Stan Getz - Quintet and Quartet 1950-1951
DYEAR=1989
DGENRE=Jazz
TTITLE0=Yvette
TTITLE1=Wild Wood
TTITLE2=Melody Express
TTITLE3=Penny
TTITLE4=Potter's Luck
TTITLE5=Split Kick
TTITLE6=Rubberneck
TTITLE7=Mosquito Knees
TTITLE8=Sweety Pie
TTITLE9=Hershey Bar
TTITLE10=Tootsie Roll
TTITLE11=For Stompers Only
EXTD=YEAR: 1989
EXTT0=
EXTT1=
EXTT2=
EXTT3=
EXTT4=
EXTT5=
EXTT6=
EXTT7=
EXTT8=
EXTT9=
EXTT10=
EXTT11=
PLAYORDER=
